# xmcd
#
# Track frame offsets: 
#        150
#        12874
#        23506
#        36431
#        48917
#        61064
#        72038
#        82426
#        94365
#        109894
#        121643
#        131637
#        144499
#        158999
#        172231
#        185751
#        196324
#        210015
#        222614
#        234901
#        246876
#        258683
#        269707
#        281290
#
# Disc length: 3912 seconds
#
# Revision: 0
# Processed by: cddbd v1.5.2PL0 Copyright (c) Steve Scherf et al.
# Submitted via: ExactAudioCopy v0.99pb5
#
DISCID=660f4618
DTITLE=Various Artist - Heavy Soul: Old Town and Barry's Deep Down and Dirty Side
DTITLE=s
DYEAR=1967
DGENRE=R&B
TTITLE0=Thelma Jones - I Won't Give Up My Man
TTITLE1=Lester Young (vox) - I Got the Right
TTITLE2=The Flambeaus - Nobody Knows
TTITLE3=Bobby and Betty Lou - Sugar
TTITLE4=Jesse Gee - She's A Woman
TTITLE5=Roscoe and Barbara - It Ain't Right
TTITLE6=Lester Young (vox) - I Love My Baby
TTITLE7=Bobby Long and The Dealers - Heartbreak Avenue
TTITLE8=Dickie Williams - I'll Be Standing By
TTITLE9=Donald Height - Crazy Little Girl
TTITLE10=Tommy Andre - I Wonder Why
TTITLE11=John Standberry Jr. - Marie
TTITLE12=Irene Reid - Just Loving You
TTITLE13=Thelma Jones - Gotta Find A Way
TTITLE14=Peggy Scott - Making Love to My Mind
TTITLE15=Donald Height - A Tribute to Sam
TTITLE16=Lester Young (vox) - Stop
TTITLE17=Frank Howard and The Commanders - I'm Sorry for You
TTITLE18=Bobby Adams and The Serenaders - All Alone
TTITLE19=Jesse Gee - Don't Mess With My Money
TTITLE20=Irene Reid - Dirty Old Man
TTITLE21=Thelma Jones - Never Leave Me
TTITLE22=Donald Height - I'll Never Forget You
TTITLE23=Lester Young (vox) A Fool in Love
EXTD=
EXTT0=
EXTT1=
EXTT2=
EXTT3=
EXTT4=
EXTT5=
EXTT6=
EXTT7=
EXTT8=
EXTT9=
EXTT10=
EXTT11=
EXTT12=
EXTT13=
EXTT14=
EXTT15=
EXTT16=
EXTT17=
EXTT18=
EXTT19=
EXTT20=
EXTT21=
EXTT22=
EXTT23=
PLAYORDER=
